<?xml version="1.0" encoding="utf-8"?>
<!-- Generator: Adobe Illustrator 21.0.0, SVG Export Plug-In . SVG Version: 6.00 Build 0)  -->
<svg version="1.1" id="图层_1" xmlns="http://www.w3.org/2000/svg" xmlns:xlink="http://www.w3.org/1999/xlink" x="0px" y="0px"
	 viewBox="0 0 48 48" style="enable-background:new 0 0 48 48;" xml:space="preserve">
<style type="text/css">
	.st0{fill-rule:evenodd;clip-rule:evenodd;}
</style>
<path class="st0" fill="#6d451e" d="M24,0C10.7,0,0,10.7,0,24s10.7,24,24,24s24-10.7,24-24S37.3,0,24,0z M38.5,19.2l-16,16
	c-0.2,0.2-0.5,0.4-0.7,0.5c-1.2,0.8-2.8,0.6-3.8-0.5l-7.3-8.7c-1-1.2-0.8-3,0.3-4c1.2-1,3-0.8,4,0.3l5.3,6.4l14.1-14.1
	c1.1-1.1,2.9-1.1,4,0C39.6,16.3,39.6,18.1,38.5,19.2z"/>
</svg>
